<?xml version="1.0" encoding="UTF-8"?>
<svg id="_레이어_1" data-name="레이어_1" xmlns="http://www.w3.org/2000/svg" version="1.1" viewBox="0 0 390 2200">
  <!-- Generator: Adobe Illustrator 30.8.1, SVG Export Plug-In . SVG Version: 2.1.4 Build 1)  -->
  <defs>
    <style>
      .st0 {
        stroke: #dedede;
      }

      .st0, .st1, .st2 {
        fill: none;
      }

      .st3 {
        stroke: #d9d9d9;
      }

      .st3, .st4 {
        fill: #fff;
      }

      .st1 {
        stroke: #42965a;
      }

      .st1, .st2 {
        stroke-linecap: round;
        stroke-miterlimit: 10;
        stroke-width: 1.12px;
      }

      .st5, .st6, .st7, .st8, .st9, .st10, .st11 {
        isolation: isolate;
      }

      .st5, .st6, .st9, .st11 {
        fill: #737373;
        font-size: 10px;
      }

      .st5, .st7 {
        font-family: ArialMT, Arial;
      }

      .st6, .st8, .st9, .st10, .st11 {
        font-family: Arial-BoldMT, Arial;
        font-weight: 700;
      }

      .st7 {
        font-size: 12px;
      }

      .st7, .st8, .st10 {
        fill: #111;
      }

      .st12 {
        fill: #2e9b58;
      }

      .st8 {
        font-size: 21px;
      }

      .st9 {
        letter-spacing: .18em;
      }

      .st10 {
        font-size: 26px;
        letter-spacing: .02em;
      }

      .st13 {
        fill: #f7f7f7;
      }

      .st14 {
        fill: #52a565;
      }

      .st11 {
        letter-spacing: .15em;
      }

      .st15 {
        fill: #2b75c7;
      }

      .st16 {
        fill: #216bb3;
      }

      .st17 {
        fill: #39383a;
      }

      .st2 {
        stroke: #393635;
      }
    </style>
  </defs>
  <rect class="st4" y="0" width="390" height="2030"/>
  <text class="st9" transform="translate(24 34)"><tspan x="0" y="0">OUR RANGE OF SHOES</tspan></text>
  <text class="st10" transform="translate(24 72)"><tspan x="0" y="0">SHOE TECHNOLOGY</tspan></text>
  <line class="st0" x1="24" y1="144" x2="366" y2="144"/>
  <circle class="st15" cx="24" cy="123" r="4"/>
  <text class="st5" transform="translate(34 127)"><tspan x="0" y="0">POWER CUSHION+</tspan></text>
  <circle class="st12" cx="144" cy="123" r="4"/>
  <text class="st5" transform="translate(154 127)"><tspan x="0" y="0">POWER CUSHION</tspan></text>
  <rect class="st3" x="18" y="170" width="354" height="475" rx="18" ry="18"/>
  <text class="st6" transform="translate(38 199)"><tspan x="0" y="0">01</tspan></text>
  <text class="st8" transform="translate(38 228)"><tspan x="0" y="0">ECLIPSION 5</tspan></text>
  <line class="st0" x1="38" y1="252" x2="352" y2="252"/>
  <text class="st11" transform="translate(38 278)"><tspan x="0" y="0">MATERIAL</tspan></text>
  <g>
    <g>
      <rect class="st13" x="38" y="296" width="151" height="34" rx="8" ry="8"/>
      <circle class="st15" cx="51" cy="313" r="4"/>
      <text class="st7" transform="translate(62 317)"><tspan x="0" y="0">POWER CUSHION+</tspan></text>
    </g>
    <g>
      <rect class="st13" x="201" y="296" width="151" height="34" rx="8" ry="8"/>
      <circle class="st12" cx="214" cy="313" r="4"/>
      <text class="st7" transform="translate(225 317)"><tspan x="0" y="0">POWER CUSHION</tspan></text>
    </g>
    <g>
      <rect class="st13" x="38" y="340" width="151" height="34" rx="8" ry="8"/>
      <text class="st7" transform="translate(50 361)"><tspan x="0" y="0">Double Raschel Mesh</tspan></text>
    </g>
    <g>
      <rect class="st13" x="201" y="340" width="151" height="34" rx="8" ry="8"/>
      <text class="st7" transform="translate(213 361)"><tspan x="0" y="0">Durable Skin</tspan></text>
    </g>
    <g>
      <rect class="st13" x="38" y="384" width="151" height="34" rx="8" ry="8"/>
      <text class="st7" transform="translate(50 405)"><tspan x="0" y="0">Feather Bounce Foam</tspan></text>
    </g>
    <g>
      <rect class="st13" x="201" y="384" width="151" height="34" rx="8" ry="8"/>
      <text class="st7" transform="translate(213 405)"><tspan x="0" y="0">Endurance Rubber II</tspan></text>
    </g>
  </g>
  <text class="st11" transform="translate(38 456)"><tspan x="0" y="0">TECHNOLOGY</tspan></text>
  <g>
    <g>
      <rect class="st13" x="38" y="472" width="151" height="34" rx="8" ry="8"/>
      <text class="st7" transform="translate(50 493)"><tspan x="0" y="0">Power Graphite Sheet</tspan></text>
    </g>
    <g>
      <rect class="st13" x="201" y="472" width="151" height="34" rx="8" ry="8"/>
      <text class="st7" transform="translate(213 493)"><tspan x="0" y="0">Pinpoint Pattern</tspan></text>
    </g>
    <g>
      <rect class="st13" x="38" y="516" width="151" height="34" rx="8" ry="8"/>
      <text class="st7" transform="translate(50 537)"><tspan x="0" y="0">Inner Bootie Structure</tspan></text>
    </g>
    <g>
      <rect class="st13" x="201" y="516" width="151" height="34" rx="8" ry="8"/>
      <text class="st7" transform="translate(213 537)"><tspan x="0" y="0">Synchro-Fit Insole</tspan></text>
    </g>
    <g>
      <rect class="st13" x="38" y="560" width="151" height="34" rx="8" ry="8"/>
      <text class="st7" transform="translate(50 581)"><tspan x="0" y="0">Toe Assist Shape</tspan></text>
    </g>
    <g>
      <rect class="st13" x="201" y="560" width="151" height="34" rx="8" ry="8"/>
      <text class="st7" transform="translate(213 581)"><tspan x="0" y="0">Round Sole</tspan></text>
    </g>
  </g>
  <text class="st5" transform="translate(38 617)"><tspan x="0" y="0">+ Heel Contact Round Sole</tspan></text>
  <rect class="st3" x="18" y="665" width="354" height="455" rx="18" ry="18"/>
  <text class="st6" transform="translate(38 694)"><tspan x="0" y="0">02</tspan></text>
  <text class="st8" transform="translate(38 723)"><tspan x="0" y="0">AD-ACCEL</tspan></text>
  <line class="st0" x1="38" y1="747" x2="352" y2="747"/>
  <text class="st11" transform="translate(38 773)"><tspan x="0" y="0">MATERIAL</tspan></text>
  <g>
    <g>
      <rect class="st13" x="38" y="791" width="151" height="34" rx="8" ry="8"/>
      <circle class="st15" cx="51" cy="808" r="4"/>
      <text class="st7" transform="translate(62 812)"><tspan x="0" y="0">POWER CUSHION+</tspan></text>
    </g>
    <g>
      <rect class="st13" x="201" y="791" width="151" height="34" rx="8" ry="8"/>
      <text class="st7" transform="translate(213 812)"><tspan x="0" y="0">Double Raschel Mesh</tspan></text>
    </g>
    <g>
      <rect class="st13" x="38" y="835" width="151" height="34" rx="8" ry="8"/>
      <text class="st7" transform="translate(50 856)"><tspan x="0" y="0">Durable Skin</tspan></text>
    </g>
    <g>
      <rect class="st13" x="201" y="835" width="151" height="34" rx="8" ry="8"/>
      <text class="st7" transform="translate(213 856)"><tspan x="0" y="0">Durable Skin Light</tspan></text>
    </g>
    <g>
      <rect class="st13" x="38" y="879" width="151" height="34" rx="8" ry="8"/>
      <text class="st7" transform="translate(50 900)"><tspan x="0" y="0">HYPER msLITE</tspan></text>
    </g>
    <g>
      <rect class="st13" x="201" y="879" width="151" height="34" rx="8" ry="8"/>
      <text class="st7" transform="translate(213 900)"><tspan x="0" y="0">Endurance Rubber</tspan></text>
    </g>
  </g>
  <text class="st11" transform="translate(38 951)"><tspan x="0" y="0">TECHNOLOGY</tspan></text>
  <g>
    <g>
      <rect class="st13" x="38" y="967" width="151" height="34" rx="8" ry="8"/>
      <text class="st7" transform="translate(50 988)"><tspan x="0" y="0">Power Graphite Sheet</tspan></text>
    </g>
    <g>
      <rect class="st13" x="201" y="967" width="151" height="34" rx="8" ry="8"/>
      <text class="st7" transform="translate(213 988)"><tspan x="0" y="0">Pinpoint Pattern</tspan></text>
    </g>
    <g>
      <rect class="st13" x="38" y="1011" width="151" height="34" rx="8" ry="8"/>
      <text class="st7" transform="translate(50 1032)"><tspan x="0" y="0">Inner Bootie Structure</tspan></text>
    </g>
    <g>
      <rect class="st13" x="201" y="1011" width="151" height="34" rx="8" ry="8"/>
      <text class="st7" transform="translate(213 1032)"><tspan x="0" y="0">Toe Assist Shape</tspan></text>
    </g>
    <g>
      <rect class="st13" x="38" y="1055" width="151" height="34" rx="8" ry="8"/>
      <text class="st7" transform="translate(50 1076)"><tspan x="0" y="0">Round Sole</tspan></text>
    </g>
    <g>
      <rect class="st13" x="201" y="1055" width="151" height="34" rx="8" ry="8"/>
      <text class="st7" transform="translate(213 1076)"><tspan x="0" y="0">Heel Contact Round Sole</tspan></text>
    </g>
  </g>
  <rect class="st3" x="18" y="1140" width="354" height="430" rx="18" ry="18"/>
  <text class="st6" transform="translate(38 1169)"><tspan x="0" y="0">03</tspan></text>
  <text class="st8" transform="translate(38 1198)"><tspan x="0" y="0">SONICAGE</tspan></text>
  <line class="st0" x1="38" y1="1222" x2="352" y2="1222"/>
  <text class="st11" transform="translate(38 1248)"><tspan x="0" y="0">MATERIAL</tspan></text>
  <g>
    <g>
      <rect class="st13" x="38" y="1266" width="151" height="34" rx="8" ry="8"/>
      <circle class="st15" cx="51" cy="1283" r="4"/>
      <text class="st7" transform="translate(62 1287)"><tspan x="0" y="0">POWER CUSHION+</tspan></text>
    </g>
    <g>
      <rect class="st13" x="201" y="1266" width="151" height="34" rx="8" ry="8"/>
      <text class="st7" transform="translate(213 1287)"><tspan x="0" y="0">Double Raschel Mesh</tspan></text>
    </g>
    <g>
      <rect class="st13" x="38" y="1310" width="151" height="34" rx="8" ry="8"/>
      <text class="st7" transform="translate(50 1331)"><tspan x="0" y="0">Durable Skin Light</tspan></text>
    </g>
    <g>
      <rect class="st13" x="201" y="1310" width="151" height="34" rx="8" ry="8"/>
      <text class="st7" transform="translate(213 1331)"><tspan x="0" y="0">HYPER msLITE</tspan></text>
    </g>
    <g>
      <rect class="st13" x="38" y="1354" width="151" height="34" rx="8" ry="8"/>
      <text class="st7" transform="translate(50 1375)"><tspan x="0" y="0">Endurance Rubber</tspan></text>
    </g>
  </g>
  <text class="st11" transform="translate(38 1426)"><tspan x="0" y="0">TECHNOLOGY</tspan></text>
  <g>
    <g>
      <rect class="st13" x="38" y="1442" width="151" height="34" rx="8" ry="8"/>
      <text class="st7" transform="translate(50 1463)"><tspan x="0" y="0">Power Graphite Sheet</tspan></text>
    </g>
    <g>
      <rect class="st13" x="201" y="1442" width="151" height="34" rx="8" ry="8"/>
      <text class="st7" transform="translate(213 1463)"><tspan x="0" y="0">Pinpoint Pattern</tspan></text>
    </g>
    <g>
      <rect class="st13" x="38" y="1486" width="151" height="34" rx="8" ry="8"/>
      <text class="st7" transform="translate(50 1507)"><tspan x="0" y="0">Inner Bootie Structure</tspan></text>
    </g>
    <g>
      <rect class="st13" x="201" y="1486" width="151" height="34" rx="8" ry="8"/>
      <text class="st7" transform="translate(213 1507)"><tspan x="0" y="0">Toe Assist Shape</tspan></text>
    </g>
    <g>
      <rect class="st13" x="38" y="1530" width="151" height="34" rx="8" ry="8"/>
      <text class="st7" transform="translate(50 1551)"><tspan x="0" y="0">Round Sole</tspan></text>
    </g>
  </g>
  <rect class="st3" x="18" y="1590" width="354" height="335" rx="18" ry="18"/>
  <text class="st6" transform="translate(38 1619)"><tspan x="0" y="0">04</tspan></text>
  <text class="st8" transform="translate(38 1648)"><tspan x="0" y="0">PRO-MOVE CLASSIC</tspan></text>
  <line class="st0" x1="38" y1="1672" x2="352" y2="1672"/>
  <text class="st11" transform="translate(38 1698)"><tspan x="0" y="0">MATERIAL</tspan></text>
  <g>
    <g>
      <rect class="st13" x="38" y="1716" width="151" height="34" rx="8" ry="8"/>
      <circle class="st12" cx="51" cy="1733" r="4"/>
      <text class="st7" transform="translate(62 1737)"><tspan x="0" y="0">POWER CUSHION</tspan></text>
    </g>
    <g>
      <rect class="st13" x="201" y="1716" width="151" height="34" rx="8" ry="8"/>
      <text class="st7" transform="translate(213 1737)"><tspan x="0" y="0">Double Raschel Mesh</tspan></text>
    </g>
    <g>
      <rect class="st13" x="38" y="1760" width="151" height="34" rx="8" ry="8"/>
      <text class="st7" transform="translate(50 1781)"><tspan x="0" y="0">Durable Skin Light</tspan></text>
    </g>
    <g>
      <rect class="st13" x="201" y="1760" width="151" height="34" rx="8" ry="8"/>
      <text class="st7" transform="translate(213 1781)"><tspan x="0" y="0">Endurance Rubber</tspan></text>
    </g>
  </g>
  <text class="st11" transform="translate(38 1832)"><tspan x="0" y="0">TECHNOLOGY</tspan></text>
  <g>
    <g>
      <rect class="st13" x="38" y="1848" width="151" height="34" rx="8" ry="8"/>
      <text class="st7" transform="translate(50 1868.9999)"><tspan x="0" y="0">Toe Assist Shape</tspan></text>
    </g>
    <g>
      <rect class="st13" x="201" y="1848" width="151" height="34" rx="8" ry="8"/>
      <text class="st7" transform="translate(213 1868.9999)"><tspan x="0" y="0">Round Sole</tspan></text>
    </g>
  </g>
  <g>
    <line class="st0" x1="24" y1="1970" x2="366" y2="1970"/>
    <text class="st11" transform="translate(24 2001.9999)"><tspan x="0" y="0">ABOUT THIS MOBILE VERSION</tspan></text>
    <text class="st5" transform="translate(24 2025.9999)"><tspan x="0" y="0">The desktop comparison matrix was reorganized into model cards</tspan></text>
    <text class="st5" transform="translate(24 2041.9999)"><tspan x="0" y="0">so each technology can be read without pinch-zooming on a phone.</tspan></text>
  </g>
  <g>
    <path class="st16" d="M332.17,233.96h14.8c.31,0,.55-.25.55-.55s-.25-.55-.55-.55h-14.8c-.31,0-.55.25-.55.55s.25.55.55.55"/>
    <path class="st16" d="M282.18,227.86c.06.05,4.44,3.84,14.11,5.44.3.05.59-.15.64-.46.05-.3-.15-.59-.45-.64-4.72-.78-8.13-2.09-10.35-3.2-1.11-.55-1.92-1.06-2.45-1.42-.27-.18-.46-.33-.59-.42l-.14-.11-.04-.03c-.23-.2-.58-.18-.78.05-.2.23-.18.58.05.78h0Z"/>
    <path class="st17" d="M282.18,230.67c.08.07,7.04,6.12,22.84,6.12h41.95c.31,0,.55-.25.55-.55s-.25-.55-.55-.55h-41.95c-7.76,0-13.3-1.48-16.9-2.95-1.8-.73-3.11-1.47-3.97-2.01-.43-.27-.74-.5-.95-.65l-.23-.18-.07-.05c-.23-.2-.58-.18-.78.05-.2.23-.18.58.05.78h0Z"/>
    <path class="st17" d="M347.15,223.86l-1.01-13.19-.55.04h.55c0-1.56-.14-2.62-.46-3.38-.16-.38-.37-.69-.66-.9-.29-.22-.64-.32-.97-.32-.63,0-1.2.28-1.81.64-.9.53-1.86,1.29-2.82,1.93-.96.64-1.91,1.12-2.68,1.16h0c-.12,0-.27.01-.45.01-1.32,0-3.99-.24-6.3-.81-1.15-.28-2.22-.65-2.96-1.07-.37-.21-.65-.44-.83-.65-.18-.22-.25-.4-.27-.59-.13-2.33-.52-3.8-1.1-4.75-.57-.96-1.42-1.35-2.15-1.33-1.13.02-1.92.71-1.97.74l-.04.03-6.24,7.34.42.36-.38-.4s-.16.15-.46.42c-1.06.96-3.84,3.36-7.26,5.52-3.42,2.16-7.49,4.07-11.02,4.09h-.35c-3.55,0-6.31-.54-8.46-.54-1.08,0-2.04.14-2.84.63-.81.49-1.38,1.33-1.72,2.51-.09.29.08.6.38.69.29.09.6-.08.69-.38.3-1.01.7-1.54,1.23-1.87.53-.33,1.27-.47,2.26-.47,1.97,0,4.81.54,8.46.54h.36c4.47-.06,9.3-2.67,13.06-5.22,3.76-2.56,6.43-5.11,6.44-5.12l.02-.02,6.22-7.33-.42-.36.35.43h.02c.11-.1.71-.5,1.25-.49.39.01.76.12,1.2.81.43.69.82,2,.94,4.23.02.47.23.9.53,1.24.52.61,1.31,1.04,2.22,1.41,2.76,1.09,6.83,1.5,8.71,1.51.2,0,.37,0,.52-.01h0c1.5-.12,2.91-1.12,4.2-2.03.64-.46,1.25-.9,1.79-1.21.53-.32.99-.49,1.24-.48.14,0,.21.03.3.09.13.09.32.36.45.91.14.55.22,1.37.22,2.48v.02l1.01,13.21c.02.31.29.53.59.51.3-.02.53-.29.51-.59h0Z"/>
    <path class="st14" d="M282.61,225.15c.08.07,7.04,6.12,22.84,6.12h41.95c.31,0,.55-.25.55-.55s-.25-.55-.55-.55h-41.95c-7.76,0-13.3-1.48-16.9-2.95-1.8-.74-3.11-1.47-3.97-2.01-.43-.27-.74-.5-.95-.65l-.23-.18-.06-.05c-.23-.2-.58-.18-.78.05-.2.23-.18.58.05.78h0Z"/>
  </g>
  <g>
    <path class="st16" d="M332.56,727.76h14.89c.29,0,.51-.23.51-.52s-.22-.52-.51-.52h-14.89c-.29,0-.52.23-.52.52s.23.52.52.52"/>
    <path class="st16" d="M282.55,721.67c.06.05,4.46,3.84,14.18,5.45.28.05.55-.15.59-.43.05-.28-.14-.55-.43-.59-4.76-.78-8.18-2.1-10.42-3.21-1.12-.56-1.94-1.06-2.47-1.42-.27-.18-.47-.33-.59-.43l-.14-.11-.04-.03c-.22-.19-.54-.16-.73.05-.19.22-.16.54.05.73h0Z"/>
    <path class="st17" d="M282.55,724.45c.07.07,7.04,6.12,22.86,6.12h42.04c.29,0,.51-.23.51-.52s-.22-.52-.51-.52h-42.04c-7.78,0-13.34-1.48-16.95-2.96-1.8-.74-3.12-1.47-3.98-2.02-.43-.27-.75-.5-.96-.65l-.23-.18-.07-.06c-.22-.19-.54-.17-.73.05-.19.22-.17.54.05.73h0Z"/>
    <path class="st17" d="M347.58,717.79l-1.01-13.11-.51.04h.52c-.01-1.55-.15-2.6-.47-3.34-.15-.37-.36-.67-.65-.88-.28-.21-.62-.31-.94-.31-.62,0-1.19.28-1.79.63-.9.53-1.86,1.29-2.83,1.91-.96.63-1.92,1.12-2.7,1.16h0c-.12,0-.27.01-.45.01-1.32,0-4.01-.24-6.32-.81-1.16-.28-2.23-.64-2.97-1.07-.37-.21-.66-.43-.84-.65-.18-.22-.26-.41-.27-.6-.13-2.31-.52-3.77-1.1-4.71-.56-.94-1.4-1.32-2.12-1.31-1.12.02-1.9.7-1.95.72l-.04.03-6.25,7.3.39.34-.36-.38s-.16.15-.46.42c-1.06.95-3.85,3.34-7.28,5.49-3.43,2.15-7.51,4.05-11.07,4.07h-.35c-3.56,0-6.33-.53-8.48-.54-1.08,0-2.03.14-2.83.62-.8.48-1.37,1.31-1.71,2.47-.08.27.08.56.35.64.27.08.56-.08.64-.35.3-1.01.71-1.55,1.25-1.88.54-.33,1.29-.47,2.29-.47,1.98,0,4.83.54,8.48.54h.36c4.46-.06,9.3-2.64,13.06-5.18,3.76-2.55,6.44-5.07,6.45-5.08l.02-.02,6.23-7.28-.39-.34.33.4h.02c.11-.11.72-.5,1.28-.49.4.01.79.13,1.24.82.43.69.83,2,.94,4.22.02.46.23.88.52,1.22.52.6,1.3,1.03,2.21,1.39,2.75,1.08,6.83,1.49,8.71,1.49.19,0,.37,0,.52-.01h0c1.49-.11,2.89-1.1,4.19-2.01.65-.45,1.26-.89,1.79-1.21.54-.32.99-.49,1.27-.48.14,0,.23.03.32.1.15.1.33.37.47.93.14.55.23,1.37.23,2.47v.02l1.01,13.13c.01.29.26.5.55.48.29-.02.5-.27.47-.56h0Z"/>
  </g>
  <g>
    <path class="st16" d="M332.56,1202.73h14.89c.29,0,.51-.23.51-.52s-.22-.52-.51-.52h-14.89c-.29,0-.52.23-.52.52s.23.52.52.52"/>
    <path class="st16" d="M282.55,1196.63c.06.05,4.46,3.84,14.18,5.45.28.05.55-.15.59-.43.05-.28-.14-.55-.43-.59-4.76-.78-8.18-2.1-10.42-3.21-1.12-.56-1.94-1.06-2.47-1.42-.27-.18-.47-.33-.59-.43l-.14-.11-.04-.03c-.22-.19-.54-.16-.73.05-.19.22-.16.54.05.73h0Z"/>
    <path class="st17" d="M282.55,1199.42c.07.07,7.04,6.12,22.86,6.12h42.04c.29,0,.51-.23.51-.52s-.22-.52-.51-.52h-42.04c-7.78,0-13.34-1.48-16.95-2.96-1.8-.74-3.12-1.47-3.98-2.02-.43-.27-.75-.5-.96-.65l-.23-.18-.07-.06c-.22-.19-.54-.17-.73.05-.19.22-.17.54.05.73h0Z"/>
    <path class="st17" d="M347.58,1192.75l-1.01-13.11-.51.04h.52c-.01-1.55-.15-2.6-.47-3.34-.15-.37-.36-.67-.65-.88-.28-.21-.62-.31-.94-.31-.62,0-1.19.28-1.79.63-.9.53-1.86,1.29-2.83,1.91-.96.63-1.92,1.12-2.7,1.16h0c-.12,0-.27.01-.45.01-1.32,0-4.01-.24-6.32-.81-1.16-.28-2.23-.64-2.97-1.07-.37-.21-.66-.43-.84-.65-.18-.22-.26-.41-.27-.6-.13-2.31-.52-3.77-1.1-4.71-.56-.94-1.4-1.32-2.12-1.31-1.12.02-1.9.7-1.95.72l-.04.03-6.25,7.3.39.34-.36-.38s-.16.15-.46.42c-1.06.95-3.85,3.34-7.28,5.49-3.43,2.15-7.51,4.05-11.07,4.07h-.35c-3.56,0-6.33-.53-8.48-.54-1.08,0-2.03.14-2.83.62-.8.48-1.37,1.31-1.71,2.47-.08.27.08.56.35.64.27.08.56-.08.64-.35.3-1.01.71-1.55,1.25-1.88.54-.33,1.29-.47,2.29-.47,1.98,0,4.83.54,8.48.54h.36c4.46-.06,9.3-2.64,13.06-5.18,3.76-2.55,6.44-5.07,6.45-5.08l.02-.02,6.23-7.28-.39-.34.33.4h.02c.11-.11.72-.5,1.28-.49.4.01.79.13,1.24.82.43.69.83,2,.94,4.22.02.46.23.88.52,1.22.52.6,1.3,1.03,2.21,1.39,2.75,1.08,6.83,1.49,8.71,1.49.19,0,.37,0,.52-.01h0c1.49-.11,2.89-1.1,4.19-2.01.65-.45,1.26-.89,1.79-1.21.54-.32.99-.49,1.27-.48.14,0,.23.03.32.1.15.1.33.37.47.93.14.55.23,1.37.23,2.47v.02l1.01,13.13c.01.29.26.5.55.48.29-.02.5-.27.47-.56h0Z"/>
  </g>
  <g>
    <line class="st1" x1="333.17" y1="1650.6" x2="348.14" y2="1650.6"/>
    <path class="st2" d="M282.94,1647.41s6.9,6.05,22.76,6.05h42.45M347.77,1640.98l-1.02-13.35c0-8.88-5.01-.58-8.91-.32-2.14.14-11.37-.81-11.54-3.67-.43-8.23-4.35-5.01-4.35-5.01l-6.29,7.39s-10.74,10.22-19.35,10.31c-7.52.07-11.7-2.27-13,2.22"/>
  </g>
</svg>